<?xml version="1.0" encoding="UTF-8" standalone="no"?>
<!DOCTYPE svg PUBLIC "-//W3C//DTD SVG 1.1//EN"
 "http://www.w3.org/Graphics/SVG/1.1/DTD/svg11.dtd">
<!-- Generated by graphviz version 2.40.1 (20161225.0304)
 -->
<!-- Title: dependencies Pages: 1 -->
<svg width="1631pt" height="211pt"
 viewBox="0.00 0.00 1631.00 211.00" xmlns="http://www.w3.org/2000/svg" xmlns:xlink="http://www.w3.org/1999/xlink">
<g id="graph0" class="graph" transform="scale(1 1) rotate(0) translate(4 207)">
<title>dependencies</title>
<polygon fill="#ffffff" stroke="transparent" points="-4,4 -4,-207 1627,-207 1627,4 -4,4"/>
<text text-anchor="start" x="790.5091" y="-42.4" font-family="sans-serif" font-weight="bold" font-size="14.00" fill="#000000">Legend</text>
<polygon fill="#ffffb3" stroke="transparent" points="577.5,-10 577.5,-30 597.5,-30 597.5,-10 577.5,-10"/>
<text text-anchor="start" x="601.129" y="-15.4" font-family="sans-serif" font-size="14.00" fill="#000000"> &#160;Declarations</text>
<polygon fill="#8dd3c7" stroke="transparent" points="690.5,-10 690.5,-30 710.5,-30 710.5,-10 690.5,-10"/>
<text text-anchor="start" x="714.2251" y="-15.4" font-family="sans-serif" font-size="14.00" fill="#000000"> &#160;Module</text>
<polygon fill="#80b1d3" stroke="transparent" points="776.5,-10 776.5,-30 796.5,-30 796.5,-10 776.5,-10"/>
<text text-anchor="start" x="800.2812" y="-15.4" font-family="sans-serif" font-size="14.00" fill="#000000"> &#160;Bootstrap</text>
<polygon fill="#fdb462" stroke="transparent" points="873.5,-10 873.5,-30 893.5,-30 893.5,-10 873.5,-10"/>
<text text-anchor="start" x="897.1732" y="-15.4" font-family="sans-serif" font-size="14.00" fill="#000000"> &#160;Providers</text>
<polygon fill="#fb8072" stroke="transparent" points="969.5,-10 969.5,-30 989.5,-30 989.5,-10 969.5,-10"/>
<text text-anchor="start" x="993.2258" y="-15.4" font-family="sans-serif" font-size="14.00" fill="#000000"> &#160;Exports</text>
<g id="clust1" class="cluster">
<title>cluster_AppModuleShared</title>
<polygon fill="none" stroke="#000000" stroke-dasharray="1,5" points="8,-70 8,-195 1615,-195 1615,-70 8,-70"/>
</g>
<g id="clust2" class="cluster">
<title>cluster_AppModuleShared_declarations</title>
<polygon fill="none" stroke="#000000" points="498,-78 498,-130 1607,-130 1607,-78 498,-78"/>
</g>
<g id="clust13" class="cluster">
<title>cluster_AppModuleShared_providers</title>
<polygon fill="none" stroke="#000000" points="16,-78 16,-130 490,-130 490,-78 16,-78"/>
</g>
<!-- AppComponent -->
<g id="node1" class="node">
<title>AppComponent</title>
<polygon fill="#ffffb3" stroke="#000000" points="1598.9399,-122 1493.0601,-122 1493.0601,-86 1598.9399,-86 1598.9399,-122"/>
<text text-anchor="middle" x="1546" y="-99.8" font-family="Times,serif" font-size="14.00" fill="#000000">AppComponent</text>
</g>
<!-- AppModuleShared -->
<g id="node8" class="node">
<title>AppModuleShared</title>
<polygon fill="#8dd3c7" stroke="#000000" points="910.0297,-187 907.0297,-191 886.0297,-191 883.0297,-187 787.9703,-187 787.9703,-151 910.0297,-151 910.0297,-187"/>
<text text-anchor="middle" x="849" y="-164.8" font-family="Times,serif" font-size="14.00" fill="#000000">AppModuleShared</text>
</g>
<!-- AppComponent&#45;&gt;AppModuleShared -->
<g id="edge1" class="edge">
<title>AppComponent&#45;&gt;AppModuleShared</title>
<path fill="none" stroke="#000000" d="M1546,-122.0109C1546,-144.4852 1546,-180 1546,-180 1546,-180 920.2432,-180 920.2432,-180"/>
<polygon fill="#000000" stroke="#000000" points="920.2433,-176.5001 910.2432,-180 920.2432,-183.5001 920.2433,-176.5001"/>
</g>
<!-- NavMenuComponent -->
<g id="node2" class="node">
<title>NavMenuComponent</title>
<polygon fill="#ffffb3" stroke="#000000" points="1475.8132,-122 1338.1868,-122 1338.1868,-86 1475.8132,-86 1475.8132,-122"/>
<text text-anchor="middle" x="1407" y="-99.8" font-family="Times,serif" font-size="14.00" fill="#000000">NavMenuComponent</text>
</g>
<!-- NavMenuComponent&#45;&gt;AppModuleShared -->
<g id="edge2" class="edge">
<title>NavMenuComponent&#45;&gt;AppModuleShared</title>
<path fill="none" stroke="#000000" d="M1407,-122.1289C1407,-142.5724 1407,-173 1407,-173 1407,-173 920.0447,-173 920.0447,-173"/>
<polygon fill="#000000" stroke="#000000" points="920.0448,-169.5001 910.0447,-173 920.0447,-176.5001 920.0448,-169.5001"/>
</g>
<!-- CoinDrawerComponent -->
<g id="node3" class="node">
<title>CoinDrawerComponent</title>
<polygon fill="#ffffb3" stroke="#000000" points="1320.024,-122 1169.976,-122 1169.976,-86 1320.024,-86 1320.024,-122"/>
<text text-anchor="middle" x="1245" y="-99.8" font-family="Times,serif" font-size="14.00" fill="#000000">CoinDrawerComponent</text>
</g>
<!-- CoinDrawerComponent&#45;&gt;AppModuleShared -->
<g id="edge3" class="edge">
<title>CoinDrawerComponent&#45;&gt;AppModuleShared</title>
<path fill="none" stroke="#000000" d="M1245,-122.2667C1245,-140.5552 1245,-166 1245,-166 1245,-166 920.4405,-166 920.4405,-166"/>
<polygon fill="#000000" stroke="#000000" points="920.4405,-162.5001 910.4405,-166 920.4405,-169.5001 920.4405,-162.5001"/>
</g>
<!-- CoinStoreComponent -->
<g id="node4" class="node">
<title>CoinStoreComponent</title>
<polygon fill="#ffffb3" stroke="#000000" points="1152.108,-122 1013.892,-122 1013.892,-86 1152.108,-86 1152.108,-122"/>
<text text-anchor="middle" x="1083" y="-99.8" font-family="Times,serif" font-size="14.00" fill="#000000">CoinStoreComponent</text>
</g>
<!-- CoinStoreComponent&#45;&gt;AppModuleShared -->
<g id="edge4" class="edge">
<title>CoinStoreComponent&#45;&gt;AppModuleShared</title>
<path fill="none" stroke="#000000" d="M1083,-122.0091C1083,-138.0494 1083,-159 1083,-159 1083,-159 920.1751,-159 920.1751,-159"/>
<polygon fill="#000000" stroke="#000000" points="920.1751,-155.5001 910.1751,-159 920.1751,-162.5001 920.1751,-155.5001"/>
</g>
<!-- DispenserComponent -->
<g id="node5" class="node">
<title>DispenserComponent</title>
<polygon fill="#ffffb3" stroke="#000000" points="995.8089,-122 858.1911,-122 858.1911,-86 995.8089,-86 995.8089,-122"/>
<text text-anchor="middle" x="927" y="-99.8" font-family="Times,serif" font-size="14.00" fill="#000000">DispenserComponent</text>
</g>
<!-- DispenserComponent&#45;&gt;AppModuleShared -->
<g id="edge5" class="edge">
<title>DispenserComponent&#45;&gt;AppModuleShared</title>
<path fill="none" stroke="#000000" d="M884.3051,-122.1061C884.3051,-122.1061 884.3051,-140.991 884.3051,-140.991"/>
<polygon fill="#000000" stroke="#000000" points="880.8051,-140.9909 884.3051,-150.991 887.8051,-140.991 880.8051,-140.9909"/>
</g>
<!-- DrinkCanComponent -->
<g id="node6" class="node">
<title>DrinkCanComponent</title>
<polygon fill="#ffffb3" stroke="#000000" points="840.0422,-122 703.9578,-122 703.9578,-86 840.0422,-86 840.0422,-122"/>
<text text-anchor="middle" x="772" y="-99.8" font-family="Times,serif" font-size="14.00" fill="#000000">DrinkCanComponent</text>
</g>
<!-- DrinkCanComponent&#45;&gt;AppModuleShared -->
<g id="edge6" class="edge">
<title>DrinkCanComponent&#45;&gt;AppModuleShared</title>
<path fill="none" stroke="#000000" d="M814.0032,-122.1061C814.0032,-122.1061 814.0032,-140.991 814.0032,-140.991"/>
<polygon fill="#000000" stroke="#000000" points="810.5032,-140.9909 814.0032,-150.991 817.5032,-140.991 810.5032,-140.9909"/>
</g>
<!-- InstructionScreenComponent -->
<g id="node7" class="node">
<title>InstructionScreenComponent</title>
<polygon fill="#ffffb3" stroke="#000000" points="686.0716,-122 505.9284,-122 505.9284,-86 686.0716,-86 686.0716,-122"/>
<text text-anchor="middle" x="596" y="-99.8" font-family="Times,serif" font-size="14.00" fill="#000000">InstructionScreenComponent</text>
</g>
<!-- InstructionScreenComponent&#45;&gt;AppModuleShared -->
<g id="edge7" class="edge">
<title>InstructionScreenComponent&#45;&gt;AppModuleShared</title>
<path fill="none" stroke="#000000" d="M596,-122.0091C596,-138.0494 596,-159 596,-159 596,-159 777.7558,-159 777.7558,-159"/>
<polygon fill="#000000" stroke="#000000" points="777.7558,-162.5001 787.7558,-159 777.7557,-155.5001 777.7558,-162.5001"/>
</g>
<!-- CoinService -->
<g id="node9" class="node">
<title>CoinService</title>
<ellipse fill="#fdb462" stroke="#000000" cx="423" cy="-104" rx="58.5463" ry="18"/>
<text text-anchor="middle" x="423" y="-99.8" font-family="Times,serif" font-size="14.00" fill="#000000">CoinService</text>
</g>
<!-- CoinService&#45;&gt;AppModuleShared -->
<g id="edge8" class="edge">
<title>CoinService&#45;&gt;AppModuleShared</title>
<path fill="none" stroke="#000000" d="M423,-122.2667C423,-140.5552 423,-166 423,-166 423,-166 777.9646,-166 777.9646,-166"/>
<polygon fill="#000000" stroke="#000000" points="777.9646,-169.5001 787.9646,-166 777.9646,-162.5001 777.9646,-169.5001"/>
</g>
<!-- DispenserService -->
<g id="node10" class="node">
<title>DispenserService</title>
<ellipse fill="#fdb462" stroke="#000000" cx="268" cy="-104" rx="78.7066" ry="18"/>
<text text-anchor="middle" x="268" y="-99.8" font-family="Times,serif" font-size="14.00" fill="#000000">DispenserService</text>
</g>
<!-- DispenserService&#45;&gt;AppModuleShared -->
<g id="edge9" class="edge">
<title>DispenserService&#45;&gt;AppModuleShared</title>
<path fill="none" stroke="#000000" d="M268,-122.1289C268,-142.5724 268,-173 268,-173 268,-173 777.9209,-173 777.9209,-173"/>
<polygon fill="#000000" stroke="#000000" points="777.921,-176.5001 787.9209,-173 777.9209,-169.5001 777.921,-176.5001"/>
</g>
<!-- MessageService -->
<g id="node11" class="node">
<title>MessageService</title>
<ellipse fill="#fdb462" stroke="#000000" cx="98" cy="-104" rx="73.5522" ry="18"/>
<text text-anchor="middle" x="98" y="-99.8" font-family="Times,serif" font-size="14.00" fill="#000000">MessageService</text>
</g>
<!-- MessageService&#45;&gt;AppModuleShared -->
<g id="edge10" class="edge">
<title>MessageService&#45;&gt;AppModuleShared</title>
<path fill="none" stroke="#000000" d="M98,-122.0109C98,-144.4852 98,-180 98,-180 98,-180 777.8609,-180 777.8609,-180"/>
<polygon fill="#000000" stroke="#000000" points="777.861,-183.5001 787.8609,-180 777.8609,-176.5001 777.861,-183.5001"/>
</g>
</g>
</svg>
